<svg width="64" height="65" viewBox="0 0 64 65" fill="none" xmlns="http://www.w3.org/2000/svg">
<circle cx="31" cy="32.5" r="24" fill="#FFC12D"/>
<ellipse cx="37.5" cy="27.5" rx="2.5" ry="3" fill="#753D04"/>
<ellipse cx="24.5" cy="27.5" rx="2.5" ry="3" fill="#753D04"/>
<path d="M21.1457 41.2432C22.0623 42.6091 23.4801 43.7569 25.2372 44.5557C26.9942 45.3545 29.0198 45.772 31.0825 45.7605C33.1453 45.7491 35.1621 45.3092 36.9028 44.491C38.6434 43.6728 40.0377 42.5094 40.9265 41.1335L40.0843 40.8362C39.2709 42.0954 37.9949 43.1601 36.4019 43.9089C34.809 44.6576 32.9633 45.0602 31.0755 45.0707C29.1878 45.0812 27.3341 44.6991 25.7261 43.9681C24.1181 43.2371 22.8207 42.1866 21.9818 40.9366L21.1457 41.2432Z" fill="#753D04"/>
<path d="M60.4877 45.2525C59.6503 48.2624 57.8303 50.9056 55.3172 52.7616C52.8041 54.6176 49.7425 55.5797 46.6195 55.4948L46.6464 54.5054C49.5486 54.5843 52.3938 53.6902 54.7292 51.9654C57.0646 50.2406 58.7559 47.7843 59.5341 44.9872L60.4877 45.2525Z" fill="#090A0A"/>
<path d="M3.51228 45.2525C4.34967 48.2624 6.16973 50.9056 8.6828 52.7616C11.1959 54.6176 14.2575 55.5797 17.3805 55.4948L17.3536 54.5054C14.4514 54.5843 11.6062 53.6902 9.27083 51.9654C6.93544 50.2406 5.24406 47.7843 4.46588 44.9872L3.51228 45.2525Z" fill="#090A0A"/>
<circle cx="60" cy="44.5" r="2" fill="#090A0A"/>
<circle cx="4" cy="44.5" r="2" fill="#090A0A"/>
</svg>
