<svg width="100" height="100" viewBox="0 0 100 100" fill="none" xmlns="http://www.w3.org/2000/svg">
<path d="M12.5 50C12.5 29.2893 29.2893 12.5 50 12.5V12.5C70.7107 12.5 87.5 29.2893 87.5 50V50C87.5 70.7107 70.7107 87.5 50 87.5V87.5C29.2893 87.5 12.5 70.7107 12.5 50V50Z" fill="#7E869E" fill-opacity="0.25"/>
<ellipse cx="50" cy="41.6667" rx="16.6667" ry="16.6667" fill="#222222"/>
<path fill-rule="evenodd" clip-rule="evenodd" d="M76.6706 75.9035C69.8426 83.049 60.2185 87.5 49.5548 87.5C38.4934 87.5 28.5505 82.7108 21.6868 75.0928C25.66 68.5455 36.3673 63.8555 48.9524 63.8555C62.0512 63.8555 73.1157 68.9362 76.6706 75.9035Z" fill="#222222"/>
</svg>
